<svg width="132" height="81" viewBox="0 0 132 81" fill="none" xmlns="http://www.w3.org/2000/svg">
<path d="M66.9716 7.56283L55.3384 15.0798L66.9716 22.5967L55.3384 30.1136L43.7052 22.534L55.3384 15.0171L43.7052 7.56283L55.3384 0.0458984L66.9716 7.56283ZM55.2765 32.494L66.9097 24.9771L78.5429 32.494L66.9097 40.0109L55.2765 32.494ZM66.9716 22.534L78.6048 15.0171L66.9716 7.56283L78.5429 0.0458984L90.1761 7.56283L78.5429 15.0798L90.1761 22.5967L78.5429 30.1136L66.9716 22.534Z" fill="#C6C6C6"/>
<path d="M0.975098 51.7307H9.47885C14.9056 51.7307 19.3812 54.8637 19.3812 62.0247V63.5352C19.3812 70.7522 15.1853 73.9971 9.64669 73.9971H0.975098V51.7307ZM5.73049 55.7588V69.9131H9.36696C12.444 69.9131 14.514 67.899 14.514 63.4234V62.2485C14.514 57.7728 12.3321 55.7588 9.19912 55.7588H5.73049ZM21.8988 55.9826H25.7031L26.3185 60.1785C27.0458 57.3253 28.892 55.8147 32.2488 55.8147H33.4236V60.6261H31.4655C27.6053 60.6261 26.6542 61.9688 26.6542 65.7731V74.053H21.9547V55.9826H21.8988ZM34.3747 65.3815V64.8779C34.3747 58.8358 38.235 55.535 43.4939 55.535C48.8646 55.535 52.613 58.8358 52.613 64.8779V65.3815C52.613 71.3117 48.9765 74.5006 43.4939 74.5006C37.6755 74.4447 34.3747 71.3117 34.3747 65.3815ZM47.8017 65.3255V64.8779C47.8017 61.5212 46.1233 59.5071 43.4379 59.5071C40.8085 59.5071 39.0741 61.3534 39.0741 64.8779V65.3255C39.0741 68.5704 40.7525 70.4166 43.4379 70.4166C46.1233 70.3606 47.8017 68.5704 47.8017 65.3255ZM55.0746 55.9826H58.9908L59.4384 59.3953C60.3895 57.1015 62.4035 55.535 65.3686 55.535C69.9562 55.535 72.9773 58.8358 72.9773 64.9339V65.4374C72.9773 71.3676 69.6205 74.5006 65.3686 74.5006C62.5154 74.5006 60.5573 73.2139 59.6062 71.1439V80.263H55.0187L55.0746 55.9826ZM68.2219 65.3255V64.9339C68.2219 61.3534 66.3757 59.5631 63.9141 59.5631C61.2846 59.5631 59.5503 61.5771 59.5503 64.9339V65.2696C59.5503 68.4585 61.2287 70.4725 63.8581 70.4725C66.5435 70.4166 68.2219 68.6823 68.2219 65.3255ZM79.9145 70.6963L79.5229 73.9971H75.4948V49.9404H80.0824V59.1715C81.0894 56.8218 83.1034 55.535 85.9567 55.535C90.2645 55.5909 93.4534 58.5561 93.4534 64.5423V65.1017C93.4534 71.0879 90.4323 74.5006 85.8448 74.5006C82.8237 74.4447 80.8656 73.046 79.9145 70.6963ZM88.6421 65.1017V64.6542C88.6421 61.3534 86.8518 59.5071 84.3342 59.5071C81.7607 59.5071 79.9705 61.5771 79.9705 64.7101V65.1017C79.9705 68.4585 81.7048 70.4166 84.2783 70.4166C87.0196 70.4166 88.6421 68.6823 88.6421 65.1017ZM95.4675 65.3815V64.8779C95.4675 58.8358 99.3277 55.535 104.587 55.535C109.957 55.535 113.706 58.8358 113.706 64.8779V65.3815C113.706 71.3117 110.013 74.5006 104.587 74.5006C98.7682 74.4447 95.4675 71.3117 95.4675 65.3815ZM108.95 65.3255V64.8779C108.95 61.5212 107.272 59.5071 104.587 59.5071C101.957 59.5071 100.223 61.3534 100.223 64.8779V65.3255C100.223 68.5704 101.901 70.4166 104.587 70.4166C107.272 70.3606 108.95 68.5704 108.95 65.3255ZM119.86 64.6542L113.538 55.9826H118.965L122.601 61.4093L126.294 55.9826H131.664L125.231 64.5982L132 73.9971H126.685L122.545 68.0109L118.517 73.9971H112.978L119.86 64.6542Z" fill="#C6C6C6"/>
</svg>
