<svg width="103" height="69" viewBox="0 0 103 69" fill="none" xmlns="http://www.w3.org/2000/svg">
<path d="M72.4848 3.04133C76.2137 1.20992 78.0616 1.45025 78.1032 3.30658C78.153 5.71804 77.7966 8.92483 77.5396 11.2452C76.1556 23.8566 73.8437 34.1619 73.6697 47.1105C79.7603 31.3427 84.8649 20.3837 91.4445 6.8864C93.5329 2.58558 94.867 3.38945 96.5822 2.62701C103.261 -0.347839 103.51 1.47517 102.64 5.11308C99.3997 18.5872 91.1046 61.0113 89.837 67.5438C89.4722 69.4339 87.4173 68.6326 86.8868 67.8935C84.5087 64.6037 81.8238 64.5523 82.122 62.3646C83.6137 51.4734 88.9833 24.1475 90.3839 17.7087C83.2489 32.3363 75.8491 50.6224 72.0454 60.9907C71.2416 63.1924 69.7748 63.0309 68.8634 61.42C67.5789 59.157 65.0847 58.0017 64.6702 55.3276C63.3693 46.8256 66.162 30.6202 66.5512 20.3679C62.665 31.5673 56.1434 53.3106 53.2844 63.1343C52.1078 67.199 48.1798 66.5359 49.2239 62.5743C53.566 46.0879 62.9218 16.9298 66.9657 6.44716C67.919 3.97761 70.4131 4.06047 72.4848 3.04133Z" fill="#C6C6C6"/>
<path d="M48.8017 1.01952C47.5422 0.712981 43.8878 2.68521 41.642 3.07461C40.9294 3.19891 40.2498 3.95294 40.0095 4.4917C36.413 12.7535 33.1896 20.6291 30.397 27.8036C26.8254 28.4135 22.6491 29.2165 17.9754 30.2663C21.3231 21.6789 24.7042 13.2091 28.0022 5.06335C29.6263 1.05255 25.3505 0.671409 23.6931 4.73189C21.5385 10.0106 17.5029 19.9007 13.0364 31.4282C9.75485 32.2328 6.27454 33.1525 2.63664 34.2034C-0.00690174 34.9666 -0.114492 35.6709 1.02909 37.2562C1.65883 38.1389 2.95985 38.0499 3.55642 38.6789C5.09781 40.309 6.03421 42.2588 8.7935 42.5538C6.33235 49.1375 3.87123 55.9268 1.64216 62.4641C0.241727 66.5676 4.22756 67.407 5.76069 63.0647C8.2301 56.065 10.8321 48.9807 13.5087 41.9173C15.7378 41.3993 21.1323 40.2374 26.1126 39.1569C22.1599 49.9908 19.5577 58.2186 18.5718 62.2236C18.3895 62.9942 18.696 63.4218 18.8618 63.7359C20.1959 65.6774 21.4638 65.757 23.1791 68.1576C23.6433 68.8122 25.2012 69.1652 25.7314 67.5535C29.3941 56.4899 33.1646 46.1093 36.6781 36.8033C38.1364 36.4843 40.7633 35.8504 42.3709 33.4514C45.2297 29.1936 46.0501 30.0572 46.7381 28.7628C47.5999 27.1378 47.028 25.6122 43.9786 25.9891C43.9786 25.9891 42.8268 26.0711 40.6971 26.3139C44.078 17.6089 47.0363 10.2254 49.166 4.5989C49.8955 2.69346 49.9867 1.30129 48.8017 1.01952Z" fill="#C6C6C6"/>
<path d="M43.8133 57.4803C44.6006 59.4699 47.0617 58.8674 46.1253 56.466C45.1722 54.0197 42.8023 46.6553 42.1807 44.2828C41.3355 41.0859 44.9982 41.9602 43.142 44.0502C41.5511 45.8474 40.4902 46.5675 37.5485 49.985C34.7062 53.2839 35.4769 57.5649 38.5181 58.5104C41.9487 59.5776 44.9735 55.7973 46.8462 53.0239C48.6609 50.3382 46.9041 48.7629 45.0728 50.3506C43.896 51.3715 42.537 52.9392 41.1614 53.7845C40.0427 54.4648 39.1643 53.734 40.656 51.6806C42.3879 49.3032 44.3269 47.3112 45.7688 45.0645C48.7106 40.4862 42.8933 37.847 40.3907 40.8209C39.0482 42.4062 39.388 43.9625 39.7527 45.2982C40.3411 47.4378 42.5288 54.2677 43.8133 57.4803Z" fill="#C6C6C6"/>
</svg>
