<svg width="131" height="77" viewBox="0 0 131 77" fill="none" xmlns="http://www.w3.org/2000/svg">
<path d="M131 62.5072V59.3188H127.04V54.3618L126.907 54.4028L123.188 55.5406L123.115 55.5629V59.3188H117.245V57.2267C117.245 56.2524 117.463 55.5068 117.892 55.0096C118.319 54.5183 118.929 54.2686 119.706 54.2686C120.265 54.2686 120.844 54.4004 121.427 54.6601L121.573 54.7253V51.3673L121.504 51.3421C120.961 51.1468 120.221 51.0483 119.305 51.0483C118.15 51.0483 117.101 51.2996 116.186 51.7977C115.27 52.2964 114.55 53.0085 114.045 53.9139C113.542 54.8182 113.287 55.8626 113.287 57.0184V59.3188H110.53V62.5072H113.287V75.9396H117.245V62.5072H123.115V71.0434C123.115 74.5589 124.773 76.3406 128.043 76.3406C128.581 76.3406 129.146 76.2774 129.724 76.154C130.312 76.0275 130.712 75.901 130.948 75.766L131 75.7353V72.5172L130.839 72.6238C130.624 72.7672 130.357 72.884 130.043 72.9708C129.728 73.0594 129.465 73.1039 129.261 73.1039C128.495 73.1039 127.928 72.8974 127.577 72.49C127.221 72.079 127.04 71.3599 127.04 70.3543V62.5072H131ZM101.691 73.1042C100.255 73.1042 99.1222 72.6278 98.324 71.6895C97.521 70.7464 97.1141 69.4019 97.1141 67.6936C97.1141 65.9312 97.521 64.5518 98.3245 63.5921C99.1231 62.6386 100.245 62.1548 101.659 62.1548C103.032 62.1548 104.124 62.6169 104.906 63.5291C105.693 64.446 106.092 65.8144 106.092 67.5974C106.092 69.4023 105.717 70.7887 104.977 71.716C104.242 72.6366 103.137 73.1042 101.691 73.1042ZM101.868 58.9183C99.1268 58.9183 96.9499 59.7214 95.398 61.3053C93.8469 62.8894 93.0603 65.0815 93.0603 67.8214C93.0603 70.4237 93.8281 72.5169 95.3423 74.0418C96.8565 75.5675 98.9173 76.3402 101.467 76.3402C104.124 76.3402 106.257 75.526 107.809 73.9202C109.36 72.3158 110.146 70.1446 110.146 67.4687C110.146 64.8257 109.408 62.7169 107.953 61.202C106.497 59.6865 104.449 58.9183 101.868 58.9183ZM86.6789 58.9182C84.8146 58.9182 83.2725 59.3951 82.0944 60.3353C80.9092 61.2811 80.3081 62.5217 80.3081 64.0228C80.3081 64.803 80.4379 65.4962 80.6933 66.084C80.9502 66.6739 81.3479 67.193 81.876 67.6289C82.4004 68.0612 83.2094 68.5141 84.2819 68.9747C85.1831 69.3456 85.8555 69.6596 86.2825 69.9069C86.7 70.1491 86.9963 70.3929 87.1636 70.6301C87.3261 70.8623 87.4087 71.1799 87.4087 71.5724C87.4087 72.6889 86.5726 73.2321 84.8518 73.2321C84.2137 73.2321 83.4856 73.0991 82.688 72.8362C81.8901 72.5738 81.1445 72.1965 80.4723 71.7127L80.3081 71.5949V75.4054L80.3684 75.4334C80.9285 75.6919 81.6344 75.9098 82.4666 76.0815C83.2973 76.2531 84.0519 76.3406 84.7076 76.3406C86.7306 76.3406 88.3597 75.8614 89.5484 74.9156C90.7447 73.9633 91.3511 72.6935 91.3511 71.1403C91.3511 70.02 91.0247 69.0591 90.3812 68.2844C89.7424 67.5157 88.6335 66.8103 87.0867 66.1866C85.8544 65.692 85.0649 65.2814 84.7394 64.9663C84.4254 64.6618 84.2661 64.2312 84.2661 63.686C84.2661 63.2026 84.4627 62.8155 84.8668 62.5017C85.2739 62.1865 85.8403 62.0262 86.5511 62.0262C87.2105 62.0262 87.8853 62.1304 88.5562 62.3345C89.2268 62.5386 89.8156 62.812 90.3074 63.1465L90.4689 63.257V59.6423L90.4069 59.6156C89.9533 59.4211 89.3552 59.2547 88.6289 59.1197C87.9055 58.986 87.2493 58.9182 86.6789 58.9182ZM69.9899 73.1042C68.5537 73.1042 67.4207 72.6278 66.6227 71.6895C65.8195 70.7464 65.4132 69.4023 65.4132 67.6936C65.4132 65.9312 65.8199 64.5518 66.6236 63.5921C67.4216 62.6386 68.5432 62.1548 69.9581 62.1548C71.33 62.1548 72.4224 62.6169 73.2051 63.5291C73.9917 64.446 74.3907 65.8144 74.3907 67.5974C74.3907 69.4023 74.0151 70.7887 73.275 71.716C72.5402 72.6366 71.4355 73.1042 69.9899 73.1042ZM70.1666 58.9183C67.4251 58.9183 65.2482 59.7214 63.6969 61.3053C62.1458 62.8894 61.3588 65.0815 61.3588 67.8214C61.3588 70.4248 62.127 72.5169 63.6412 74.0418C65.1554 75.5675 67.216 76.3402 69.7656 76.3402C72.4218 76.3402 74.556 75.526 76.1075 73.9202C77.6583 72.3158 78.4447 70.1446 78.4447 67.4687C78.4447 64.8257 77.707 62.7169 76.2515 61.202C74.7952 59.6865 72.7478 58.9183 70.1666 58.9183ZM55.3508 62.197V59.3188H51.441V75.9392H55.3508V67.4373C55.3508 65.9914 55.6785 64.8039 56.3252 63.9068C56.9638 63.0204 57.8149 62.5712 58.8538 62.5712C59.2059 62.5712 59.6012 62.6293 60.0293 62.7442C60.4531 62.8584 60.76 62.9823 60.9411 63.1127L61.1053 63.2318V59.2903L61.0419 59.2631C60.6778 59.1083 60.1628 59.0303 59.5111 59.0303C58.5287 59.0303 57.6494 59.3459 56.8963 59.9675C56.2353 60.5138 55.7574 61.2629 55.3922 62.197H55.3508ZM44.4396 58.9182C42.6461 58.9182 41.0462 59.303 39.6852 60.0611C38.3216 60.8209 37.2671 61.9059 36.5496 63.2855C35.8353 64.6618 35.4727 66.2694 35.4727 68.0621C35.4727 69.6324 35.8243 71.0736 36.5193 72.3436C37.2147 73.6158 38.199 74.6111 39.4449 75.3014C40.689 75.9909 42.127 76.3406 43.719 76.3406C45.577 76.3406 47.1633 75.969 48.4353 75.2365L48.4866 75.207V71.6252L48.3224 71.7451C47.7462 72.1647 47.1024 72.4997 46.4096 72.7411C45.7186 72.9822 45.0885 73.1041 44.5363 73.1041C43.0021 73.1041 41.7707 72.624 40.8767 71.6778C39.9807 70.7301 39.5265 69.3996 39.5265 67.7251C39.5265 66.0401 40.0002 64.6754 40.9339 63.6683C41.8645 62.6642 43.0984 62.1549 44.6007 62.1549C45.8859 62.1549 47.1381 62.5901 48.3228 63.4495L48.4866 63.5685V59.7945L48.4337 59.7647C47.9878 59.5152 47.3799 59.3091 46.6249 59.1528C45.8734 58.9969 45.1383 58.9182 44.4396 58.9182ZM32.78 59.3188H28.8703V75.9392H32.78V59.3188ZM30.865 52.2384C30.2216 52.2384 29.6604 52.4574 29.1993 52.8914C28.7363 53.3268 28.5013 53.8749 28.5013 54.5216C28.5013 55.1583 28.7335 55.6963 29.1919 56.12C29.6474 56.5425 30.2104 56.7567 30.865 56.7567C31.5194 56.7567 32.0846 56.5425 32.5456 56.1207C33.0098 55.6963 33.245 55.1583 33.245 54.5216C33.245 53.8975 33.0161 53.3549 32.5647 52.909C32.114 52.4639 31.542 52.2384 30.865 52.2384ZM21.1102 58.0926V75.9391H25.1002V52.7473H19.578L12.5588 69.9735L5.74709 52.7473H0V75.9391H3.74948V58.0908H3.87839L11.0713 75.9391H13.9009L20.9815 58.0926H21.1102Z" fill="#C6C6C6"/>
<path d="M61.9579 19.1449H43.5659V0.75293H61.9579V19.1449Z" fill="#C6C6C6"/>
<path d="M82.2646 19.1449H63.8728V0.75293H82.2646V19.1449Z" fill="#C6C6C6"/>
<path d="M61.9575 39.4594H43.5659V21.0674H61.9575V39.4594Z" fill="#C6C6C6"/>
<path d="M82.2646 39.4594H63.8728V21.0674H82.2646V39.4594Z" fill="#C6C6C6"/>
</svg>
